<?xml version="1.0" encoding="UTF-8" standalone="no"?>
<svg
   xmlns:dc="http://purl.org/dc/elements/1.1/"
   xmlns:cc="http://creativecommons.org/ns#"
   xmlns:rdf="http://www.w3.org/1999/02/22-rdf-syntax-ns#"
   xmlns:svg="http://www.w3.org/2000/svg"
   xmlns="http://www.w3.org/2000/svg"
   xmlns:sodipodi="http://sodipodi.sourceforge.net/DTD/sodipodi-0.dtd"
   xmlns:inkscape="http://www.inkscape.org/namespaces/inkscape"
   version="1.1"
   x="0px"
   y="0px"
   viewBox="0 0 1000 275.0772"
   xml:space="preserve"
   id="svg52811"
   sodipodi:docname="BBC_Sport_(2021).svg"
   width="1000"
   height="275.07721"
   inkscape:version="1.0.2 (e86c870879, 2021-01-15)"><metadata
     id="metadata14"><rdf:RDF><cc:Work
         rdf:about=""><dc:format>image/svg+xml</dc:format><dc:type
           rdf:resource="http://purl.org/dc/dcmitype/StillImage" /></cc:Work></rdf:RDF></metadata><sodipodi:namedview
     pagecolor="#ffffff"
     bordercolor="#666666"
     borderopacity="1"
     objecttolerance="10"
     gridtolerance="10"
     guidetolerance="10"
     inkscape:pageopacity="0"
     inkscape:pageshadow="2"
     inkscape:window-width="1366"
     inkscape:window-height="705"
     id="namedview12"
     showgrid="false"
     inkscape:zoom="0.5"
     inkscape:cx="545.21481"
     inkscape:cy="182.83283"
     inkscape:window-x="-8"
     inkscape:window-y="-8"
     inkscape:window-maximized="1"
     inkscape:current-layer="svg52811"
     inkscape:document-rotation="0" /><defs
     id="defs29" /><g
     id="g860"><g
       id="g844"><path
         d="m 398.2708,211.77195 q -11.69293,0 -23.18768,-2.5764 -11.29654,-2.57641 -21.80037,-8.12559 V 173.7204 q 21.2058,12.88204 44.98805,12.88204 13.47662,0 20.41309,-4.55826 7.13468,-4.55826 7.13468,-12.68386 0,-6.14374 -3.56732,-9.51289 -3.36922,-3.56733 -9.11654,-5.54919 -5.74737,-2.18003 -12.88201,-3.9637 -11.69297,-2.77459 -20.61133,-6.34193 -8.91832,-3.56732 -15.06205,-8.32378 -6.14375,-4.95462 -9.31467,-11.69292 -3.17102,-6.93649 -3.17102,-16.44938 0,-13.476593 6.73832,-23.187669 6.93649,-9.711078 19.42217,-14.86389 12.48567,-5.351002 29.72775,-5.351002 11.29659,0 22.1968,2.576406 10.90016,2.576408 19.62028,6.936486 v 26.953189 q -8.72012,-5.351003 -19.81852,-8.323779 -10.90018,-2.972775 -21.99856,-2.972775 -12.08927,0 -18.82757,4.161887 -6.54014,4.161888 -6.54014,11.891117 0,5.54918 3.17094,8.91833 3.17103,3.17096 8.91838,5.351 5.94556,1.98186 13.87293,3.96371 10.10748,2.57641 18.82761,5.74737 8.72016,2.97277 15.26026,7.72922 6.73832,4.75644 10.30564,12.0893 3.76555,7.33285 3.76555,18.03485 0,14.07115 -6.93652,24.1786 -6.93647,9.90926 -20.01668,15.26026 -13.08022,5.15281 -31.51147,5.15281 z"
         id="path63096"
         style="fill:#fed12c;stroke-width:1.95312" /><path
         d="M 476.4401,208.79918 V 67.096744 h 50.93361 q 27.34957,0 42.01522,12.089301 14.66576,12.089297 14.66576,34.682415 0,14.86389 -6.7383,25.36771 -6.54012,10.30563 -19.22399,15.85481 -12.68385,5.35101 -30.91689,5.35101 h -20.61125 v 48.35719 z m 30.12416,-72.3376 h 19.02576 q 13.4766,0 20.41309,-5.35101 7.13468,-5.54918 7.13468,-17.24211 0,-11.69293 -7.13468,-17.242116 -6.93649,-5.549184 -20.21489,-5.549184 h -19.22396 z"
         id="path63098"
         style="fill:#fed12c;stroke-width:1.95312" /><path
         d="m 667.85273,64.123969 q 16.05299,0 28.93504,5.152814 13.08022,5.152817 22.19674,14.863895 9.31471,9.512888 14.2693,23.187672 4.95473,13.4766 4.95473,30.52052 0,16.84575 -4.95473,30.52053 -4.95459,13.67478 -14.2693,23.38585 -9.11652,9.71108 -22.19674,14.86389 -12.88205,5.15281 -28.93504,5.15281 -16.053,0 -29.13324,-5.15281 -12.88201,-5.15281 -22.19674,-14.86389 -9.11652,-9.71107 -14.07111,-23.38585 -4.95469,-13.67478 -4.95469,-30.52053 0,-17.04392 4.95469,-30.52052 4.95459,-13.674784 14.07111,-23.187672 9.31473,-9.711078 22.19674,-14.863895 13.08024,-5.152814 29.13324,-5.152814 z m 0,121.091171 q 12.0893,0 20.80944,-5.54919 8.72017,-5.74736 13.27842,-16.25118 4.55824,-10.50382 4.55824,-25.5659 0,-15.06207 -4.55824,-25.56589 -4.55825,-10.50382 -13.27842,-16.053005 -8.72014,-5.54919 -20.80944,-5.54919 -12.08929,0 -20.80945,5.54919 -8.72017,5.549185 -13.2784,16.053005 -4.55826,10.50382 -4.55826,25.56589 0,15.06208 4.55826,25.5659 4.55823,10.50382 13.2784,16.25118 8.72016,5.54919 20.80945,5.54919 z"
         id="path63100"
         style="fill:#fed12c;stroke-width:1.95312" /><path
         d="m 789.23229,157.27102 v 51.52816 H 759.10816 V 67.096744 h 51.72633 q 27.9441,0 42.80799,11.692932 15.06209,11.692931 15.06209,33.493304 0,14.07115 -6.73832,23.98041 -6.54008,9.90926 -18.82756,15.26026 8.91834,14.07115 17.63848,28.34049 8.72013,14.07115 17.44025,28.93504 h -35.07873 q -14.26935,-26.16045 -29.52959,-51.52816 -1.58553,0 -2.97279,0 z m 0,-23.98041 h 19.81855 q 14.07111,0 21.404,-4.95463 7.33286,-5.15282 7.33286,-16.053 0,-10.90019 -7.33286,-16.053005 -7.13466,-5.152815 -21.20582,-5.152815 h -20.01673 z"
         id="path63102"
         style="fill:#fed12c;stroke-width:1.95312" /><path
         d="M 880.29615,67.096744 H 1000 V 93.653566 H 955.40836 V 208.79918 H 924.88779 V 93.653566 h -44.59164 z"
         id="path63104"
         style="fill:#fed12c;stroke-width:1.95312" /></g><g
       id="g849"
       transform="translate(-1.366871)"><rect
         style="fill:#fed12c;stroke-width:1.95312"
         id="rect99889"
         width="277.00171"
         height="74.02607"
         x="1.366871"
         y="0"
         ry="0" /><rect
         id="rect100175"
         width="177.36525"
         height="74.02607"
         x="101.00333"
         y="100.52559"
         style="fill:#ffb800;stroke-width:1.95312" /><rect
         id="rect104402"
         width="96.872803"
         height="74.026054"
         x="181.49577"
         y="201.05115"
         style="fill:#ff9e00;stroke-width:1.95312" /></g></g></svg>
